# xmcd
#
# Track frame offsets: 
#        182
#        20730
#        42612
#        62495
#        64390
#        82220
#        102987
#        123555
#        143335
#        165700
#        187087
#
# Disc length: 2810 seconds
#
# Revision: 10
# Processed by: cddbd v1.5PL3 Copyright (c) Steve Scherf et al.
# Submitted via: ExactAudioCopy v0.95a3
#
DISCID=a30af80b
DTITLE=Every Little Thing - Time to Destination
DYEAR=1998
DGENRE=Latin
TTITLE0=For the moment
TTITLE1=ima demo...anata ga suki dakara
TTITLE2=Face the change <<Album Mix>>
TTITLE3=Old Dreams <<Instrumental>>
TTITLE4=monochrome
TTITLE5=All along
TTITLE6=Hometown
TTITLE7=deatta korono youni
TTITLE8=Shapes Of Love
TTITLE9=True colors
TTITLE10=Time goes by <<Orchestra Version>>
EXTD=YEAR: 1998
EXTT0=
EXTT1=
EXTT2=
EXTT3=
EXTT4=
EXTT5=
EXTT6=
EXTT7=
EXTT8=
EXTT9=
EXTT10=
PLAYORDER=
